<?xml version="1.0" encoding="UTF-8"?>
<svg width="400px" height="400px" viewBox="0 0 400 400" version="1.1" xmlns="http://www.w3.org/2000/svg" xmlns:xlink="http://www.w3.org/1999/xlink">
    <title>posts-notification-bell-red</title>
    <defs>
        <linearGradient x1="50%" y1="100%" x2="50%" y2="3.061617e-15%" id="linearGradient-1">
            <stop stop-color="#D40707" offset="0%"></stop>
            <stop stop-color="#D60707" offset="6.14977382%"></stop>
            <stop stop-color="#FF0000" offset="100%"></stop>
        </linearGradient>
        <linearGradient x1="50%" y1="0%" x2="50%" y2="100%" id="linearGradient-2">
            <stop stop-color="#051C27" offset="0%"></stop>
            <stop stop-color="#EB0303" offset="100%"></stop>
        </linearGradient>
    </defs>
    <g id="posts-notification-bell-red" stroke="none" stroke-width="1" fill="none" fill-rule="evenodd">
        <g id="notifications-icon-blue" transform="translate(34.000000, 4.000000)" fill="url(#linearGradient-1)">
            <path d="M166,0 C130.523886,0.264703198 96.1111406,27.1719576 95.2696702,27.770755 C71.6408321,44.5852318 52.2354658,68.5878139 42.9821429,93.3585593 C28.6078642,131.837881 31.125,177.341856 31.125,218.116279 C31.125,245.299227 20.75,276.927134 0,313 L332,313 C310.261904,277.249616 299.392858,245.621709 299.392858,218.116279 C299.392858,176.858135 296.713601,130.729382 284.571429,93.398889 C276.476647,68.5118939 260.667124,46.2895312 237.142858,26.7318013 C213.365029,8.740675 189.650743,-0.169115309 166,0 Z" id="Path-3"></path>
        </g>
        <path d="M130,317 C136.571841,369.666666 157.717105,396 193.435792,396 C229.154479,396 253.342548,369.666666 266,317 L130,317 Z" id="Path-4" fill="url(#linearGradient-2)"></path>
    </g>
</svg>