<?xml version="1.0" encoding="UTF-8"?>
<svg width="400px" height="400px" viewBox="0 0 400 400" version="1.1" xmlns="http://www.w3.org/2000/svg" xmlns:xlink="http://www.w3.org/1999/xlink">
    <title>posts-notification-bell-red-outline</title>
    <defs>
        <linearGradient x1="50%" y1="0%" x2="50%" y2="100%" id="linearGradient-1">
            <stop stop-color="#051C27" offset="0%"></stop>
            <stop stop-color="#0055A5" offset="100%"></stop>
        </linearGradient>
    </defs>
    <g id="posts-notification-bell-red-outline" stroke="none" stroke-width="1" fill="none" fill-rule="evenodd">
        <g id="notifications-icon-blue-copy" transform="translate(34.000000, 4.000000)">
            <path d="M166,0 C130.523886,0.264703198 96.1111406,27.1719576 95.2696702,27.770755 C71.6408321,44.5852318 52.2354658,68.5878139 42.9821429,93.3585593 C28.6078642,131.837881 31.125,177.341856 31.125,218.116279 C31.125,245.299227 20.75,276.927134 0,313 L332,313 C310.261904,277.249616 299.392858,245.621709 299.392858,218.116279 C299.392858,176.858135 296.713601,130.729382 284.571429,93.398889 C276.476647,68.5118939 260.667124,46.2895312 237.142858,26.7318013 C213.365029,8.740675 189.650743,-0.169115309 166,0 Z" id="Path-3" stroke="#0055A5" stroke-width="15" fill="#0055A5"></path>
            <path d="M96,320 C102.571841,368 123.717105,392 159.435792,392 C195.154479,392 219.342548,368 232,320 L96,320 Z" id="Path-4" fill="url(#linearGradient-1)"></path>
        </g>
    </g>
</svg>